# xmcd CD database file
#
# Track frame offsets:
#	150
#	12636
#	22800
#	35896
#	53765
#	70284
#	85920
#	104631
#	119673
#	128500
#	143553
#	161165
#	181387
#	199212
#
# Disc length: 2876 seconds
#
# Revision: 0
# Processed by: cddbd v1.5.1PL2 Copyright (c) Steve Scherf et al.
# Submitted via: CDex 1.51
#
DISCID=c90b3a0e
DTITLE=JIM SORENSEN - PIANO IN THE DESERT
DYEAR=2006
DGENRE=New Age
TTITLE0=SUNRISE
TTITLE1=MORNING
TTITLE2=SOARING
TTITLE3=BUILDING CLOUDS
TTITLE4=RAINDROPS
TTITLE5=BLOOMING COLORS
TTITLE6=DAYDREAM
TTITLE7=TRAVELING TUMBLEWEED
TTITLE8=WHISPERING ECHOES
TTITLE9=TWILIGHT TRAILS
TTITLE10=EVENING STILLNESS
TTITLE11=SUNSET
TTITLE12=STARRY NIGHT
TTITLE13=WALK OF DISCOVERY
EXTD=YEAR: 2006
EXTT0=
EXTT1=
EXTT2=
EXTT3=
EXTT4=
EXTT5=
EXTT6=
EXTT7=
EXTT8=
EXTT9=
EXTT10=
EXTT11=
EXTT12=
EXTT13=
PLAYORDER=
